Patient4_TMGait_0pt5_01_left_19_EMG.mot
version=1
nRows=30
nColumns=33
inDegrees=no
endheader
time	1LAddLong	2LGlutMax	3LGlutMed	4LIliopsoas	5LSemiMemb	6LBicFemLong	7LRecFem	8LVastMed	9LVastLat	10LGasMed	11LTibAnt	12lTibPost	13LPeroneusLong	14LSol	15LExtDigLong	16LFlexDigLong	17RAddLong	18RGlutMax	19RGlutMed	20RIliopsoas	21RSemiMemb	22RBicFemLong	23RRecFem	24RVastMed	25RVastLat	26RGasMed	27RTibAnt	28RTibPost	29RPeroneusLong	30RSol	31RExtDigLong	32RFlexDigLong
26.355	0.001068	0.031738	-0.061188	0.002747	-0.006561	0.030518	-0.022278	0.009766	0.021973	-0.007172	0.003357	-0.005646	0.007172	0.16937	0.029907	-0.001831	-0.13855	-0.05249	0.22858	0.025177	-0.57846	0.31464	0.12161	-0.13321	-0.057373	0.008087	0.006409	-0.001526	-0.26062	-0.029144	-0.00061	-0.010681
26.356	0.014954	0.054932	-0.047302	0.011139	-0.007019	0.022583	0.007629	0	0.023804	-0.014038	0.005035	0.006104	0.027924	0.12482	0.000305	-0.011902	-0.089264	-0.037384	-0.091095	0.023804	-0.095825	0.30121	0.04837	-0.15228	-0.061951	0.00824	0.000153	-0.004272	0.057678	-0.059357	-0.001068	-0.009918
26.357	0.006104	0.023346	-0.067139	0.009918	0.000153	0.001526	0.023499	-0.00061	0.017395	0.019684	0.003052	0.006409	0.032196	0.1033	-0.026245	-0.006409	-0.00946	-0.013275	-0.2092	0.033875	0.31693	0.31036	0.067291	-0.038147	0.020447	0.00412	0.015564	-0.004578	0.36118	-0.061798	-0.000763	-0.010986
26.358	0.003204	0.037537	-0.071259	0.00824	0.006714	-0.020599	0.024109	0.010681	-0.001068	0.059814	-0.000916	0.006104	0.033264	0.12238	-0.02594	-0.006561	0.030823	0.064087	-0.32684	0.027618	0.19867	0.37567	0.018616	-0.013275	0.030823	0.00412	0.076141	-0.002899	0.45822	0.012207	-0.00824	-0.010834
26.359	0.006561	0.005798	-0.075531	0.002899	-0.007935	-0.022278	-0.00351	0.007324	0.007172	0.065918	0.005341	0.007935	0.085449	0.091095	-0.011292	-0.01236	0.093842	0.092316	-0.31464	0.007324	-0.008698	0.20737	-0.06485	-0.041199	0.016479	0.005493	0.1355	-0.003815	0.50003	0.059967	-0.002289	-0.009766
26.36	0.004425	0.021515	-0.086212	0.005493	0.003204	-0.013123	0.009308	0.002594	0.015717	0.07843	-0.011139	0.006256	0.042419	0.071259	0.016174	-0.008698	0.1532	0.11093	-0.46921	-0.060272	-0.10559	0.11246	-0.012512	-0.2034	-0.037689	0.003662	0.12985	-0.001831	-0.066376	-0.005493	-0.004425	-0.002441
26.361	0.011749	0.055695	-0.080261	0.004883	-0.000458	0.001373	0.027771	0.001678	0.019379	0.084991	-0.003357	0.011444	-0.002594	0.05249	0.027466	-0.011749	0.18097	0.15137	-0.41107	-0.079041	-0.42343	0.20157	-0.033264	-0.33264	0.004883	0.006409	0.06485	-0.006714	-0.21286	-0.066681	-0.007019	-0.001221
26.362	0.01358	0.053253	-0.077667	0.018158	-0.007172	-0.006561	-0.002289	0.007019	0.016327	0.063019	0.003815	0.00824	-0.032043	0.097504	0.032196	-0.005035	0.19714	0.17349	-0.17944	-0.018005	-0.49347	0.10437	-0.12146	-0.36636	0.039063	-0.002747	0.064087	-0.001526	-0.87067	-0.078125	-0.009766	0
26.363	0.012512	0.042572	-0.059509	-0.011292	-0.002441	-0.064087	-0.002289	0.004425	0.018616	-0.11154	-0.003052	0.004425	-0.066986	0.077209	0.020905	-0.00885	0.084381	0.089722	0.28702	0.020752	-0.27985	0.087891	-0.13382	-0.23819	0.092926	-0.003967	-0.006409	-0.002136	-0.21118	-0.092468	-0.003204	0.000153
26.364	0.01358	0.037384	-0.046844	0.013733	0.010071	-0.10635	0.027313	-0.00061	0.002899	-0.17105	-0.00351	-0.000153	-0.061798	0.086517	0.005493	-0.010529	0.015869	0.068665	0.41641	0.014648	-0.6897	0.18784	-0.048523	-0.004425	0.073547	0.001678	-0.068054	-0.002289	0.80521	-0.070496	-0.002594	0
26.365	0.00473	0.029297	-0.075989	0.038452	0.023499	-0.093994	0.02594	0.008392	0.007172	-0.078735	0.004578	0.003662	-0.032806	0.12039	0.009766	-0.00351	-0.097656	0.15762	0.2005	0.025787	-0.095825	0.26611	-0.11597	0.17319	0.10391	-0.001526	-0.04364	-0.005035	0.72845	0.007324	-0.003967	-0.007935
26.366	0.00351	0.045166	-0.090332	0.019531	0.036163	-0.1181	0.046082	0.007629	-0.012512	-0.036163	0.003967	0.005951	-0.007019	0.085754	0.012054	-0.011444	-0.14877	0.097351	0.38727	-0.004578	0.30823	0.17471	-0.11169	0.15472	0.098267	0.001068	0.009308	-0.002136	0.37567	0.004578	0.002441	-0.006866
26.367	0.008545	0.033112	-0.1297	0.011444	0.039978	-0.075684	0.045471	0.007019	-0.007477	-0.02655	0.00473	0.006561	-0.016022	0.08194	0.011444	0.002441	-0.121	0.077515	0.68466	-0.028534	0.3595	-0.04303	-0.103	0.018921	0.085754	-0.003967	0.070801	-0.003967	-1.1679	0.030212	-0.002136	-0.00473
26.368	0.011749	0.011139	-0.16403	-0.004272	0.035858	0.031433	0.0383	0.007935	-0.000916	-0.023499	-0.040131	0.000763	-0.005341	0.085297	0.007629	-0.007019	-0.12238	0.033264	0.013428	-0.057831	0.3952	-0.20935	-0.007172	-0.097504	0.057983	0.001984	0.018158	0.005951	-0.93307	0.009766	0.000305	-0.009003
26.369	0.001678	0.001526	-0.16144	-0.00824	0.012512	0.10895	0.048218	0.005951	-0.021973	-0.024719	-0.060272	0.006256	0.006104	0.028381	0.007782	0.003052	-0.068359	-0.039368	0.17929	-0.11337	0.62347	-0.2533	0.042572	-0.16968	0.066071	0.003662	-0.094147	0.002289	0.65704	-0.046387	0	-0.007935
26.37	0.003662	-0.00824	-0.15793	0.005188	-0.003357	0.076141	0.031891	0.009308	-0.011597	-0.018921	-0.059357	0.001221	-0.002747	0.005035	0.023193	-0.010071	-0.054626	0.035858	0.34454	-0.085297	0.48187	-0.16586	0.10254	-0.027313	0.056152	-0.002441	-0.029144	-0.00412	0.54413	-0.027466	0.005646	0.000916
26.371	0.00885	0.016327	-0.16037	0.012512	-0.00412	0.016479	0.031281	0.01358	-0.002441	-0.012512	-0.089111	0.001984	-0.006561	0.040588	0.026855	0.009308	-0.038757	0.11658	0.21042	-0.013733	0.23758	-0.066833	0.061493	0.036163	0.03067	0.001373	0.010834	-0.00412	0.11444	-0.042267	-0.005798	-0.007324
26.372	0.006409	0.031586	-0.18036	0.019073	-0.012207	0.023499	0.03067	0.007782	-0.016022	-0.022278	-0.078735	0.003357	0.029144	0.064392	0.023041	-0.003052	0.035095	0.13092	0.5339	0.13901	-0.12344	0.017242	0.08316	-0.009613	-0.004272	0.000153	0.006866	-0.004272	-0.045624	-0.03479	-0.002594	-0.010986
26.373	0.007782	-0.000153	-0.20401	0.012207	0.000153	0.02655	0.012512	0.00824	-0.018311	-0.014648	0.016327	-0.001678	0.033264	0.058441	-0.000916	-0.020142	0.045929	0.066833	0.72754	0.19424	-0.24445	0.014496	0.024872	-0.023956	-0.048523	0.001068	-0.011444	-0.003815	0.03067	0.051117	-0.003052	-0.018005
26.374	0.016937	-0.002441	-0.20416	-0.001678	0.004578	0.010529	0.002136	0.00824	-0.02121	-0.015106	0.1738	0.000763	0.041046	0.028992	-0.003357	0.011749	0.045929	0.026093	0.43366	0.11139	-0.53848	-0.031433	-0.02594	0.044098	-0.10101	0.004425	-0.009003	-0.00473	0.1889	0.063629	-0.001526	-0.018005
26.375	-0.0383	-0.020752	-0.20523	0.010529	-0.000305	0.010986	0.012054	0.009308	-0.015106	-0.028992	0.055237	0.005493	0.018768	0.066986	-0.016632	-0.004272	0.11307	0.029755	0.22232	0.028229	-0.55756	-0.13672	-0.017853	0.097046	-0.13901	-0.001221	-0.039825	-0.006409	0.58212	0.017853	0.001373	-0.010071
26.376	-0.017395	-0.025787	-0.21378	0.014038	-0.009613	0.014648	-0.010529	0.008698	-0.001221	-0.017548	-0.056915	0.001373	0.005493	0.055237	-0.013885	-0.003052	0.2092	0.063629	0.18799	-0.018463	-0.20813	-0.30075	-0.025177	0.02182	-0.12756	-0.000458	-0.011902	-0.00061	0.093079	-0.005341	-0.001678	-0.010071
26.377	0.013733	-0.046234	-0.22446	0.01358	-0.00946	-0.000305	0.037384	0.005188	0.024719	-0.005493	-0.022888	0.005951	0.020142	0.063782	0.006561	0.001526	0.20065	0.072479	0.20371	-0.016632	-0.020142	-0.34897	-0.11246	-0.034943	-0.14603	-0.006409	0.024719	-0.004883	-0.75531	-0.004578	-0.00351	-0.011597
26.378	0.005951	-0.042267	-0.24628	0.005646	0.012512	-0.013275	-0.050354	0.005646	0.028992	-0.01709	-0.014191	0.005341	-0.059967	0.11704	0.038605	0.00824	0.14404	0.023499	0.31876	-0.093231	0.31006	-0.19012	-0.057831	-0.032806	-0.094604	-0.007172	0.069122	-0.007324	-0.63751	-0.024261	-0.007324	-0.00885
26.379	0.014801	-0.051422	-0.24551	0.006104	0.008698	-0.000916	-0.052643	0.00824	0.057831	-0.015869	-0.039673	-0.001678	-0.009766	0.14221	0.10666	0.001984	-0.049744	-0.025635	0.3688	-0.1329	0.1648	0.15427	0.058136	0.040894	-0.021057	0.00351	0.034943	-0.007324	-0.20096	-0.0177	-0.003662	0.001526
26.38	0.005341	-0.037231	-0.24063	0.024567	0.021057	0.007324	-0.002899	0.007324	0.028381	-0.020294	-0.019226	0.007935	0.003357	0.15381	0.15076	0.004883	-0.21515	-0.059509	0.22369	-0.08316	-0.3447	0.48065	0.035553	0.31433	-0.001678	0.008087	-0.076447	-0.003815	0.65414	-0.003662	-0.002289	0.008545
26.381	0.007782	-0.059357	-0.26245	-0.012817	0.011749	-0.006409	-0.010681	0.010071	0.023651	-0.001831	-0.12726	0.010071	-0.026245	0.13077	0.44861	-0.007935	-0.19608	-0.099487	-0.005646	0.00061	-0.10803	0.26733	0.11673	0.44205	0.033875	-0.002747	-0.014038	-0.001526	0.44952	0.088348	0.00351	-0.001678
26.382	0.006866	-0.034027	-0.27039	-0.018463	0.003967	0.00473	0.015411	0.005035	0.020905	0.006866	-0.26077	-0.00946	0.082397	0.12192	0.076904	0.011749	-0.18127	-0.075226	-0.079803	0.076599	0.43015	0.19379	0.2005	0.46036	0.02594	-0.007019	0.10681	-0.007477	0.036774	0.060577	-0.006256	-0.00824
26.383	0.004883	-0.040436	-0.26428	-0.020905	-0.008698	0.00885	0.020447	0.004578	0.032043	-0.021973	0.006561	0.016022	0.11276	0.18051	0.19165	-0.011292	-0.12375	-0.03952	-0.066223	0.15335	0.40512	0.10696	0.15243	0.45136	0.12573	-0.00412	0.22278	-0.00824	-0.24597	0.028992	-0.002136	-0.008698
26.384	0.003357	-0.001373	-0.25513	0.008087	-0.004578	-0.002594	-0.007782	0.003967	0.029297	-0.055237	0.38177	0.007324	0.02182	0.20386	-0.2153	0.000458	-0.054779	-0.000458	-0.20081	0.19806	0.14771	0.004272	0.23483	0.29282	0.14893	-0.003357	0.177	-0.001373	-0.050507	0.006561	-0.001221	-0.010681
